<svg xmlns="http://www.w3.org/2000/svg" width="1920" height="1080"><path d="M-239,-321L183,-313L682,-327Z" fill="#e9b2bc" stroke="#e9b2bc" stroke-width="1.51"/><path d="M382,1322L-34,1317L967,1389Z" fill="#d66b79" stroke="#d66b79" stroke-width="1.51"/><path d="M682,-327L1033,-300L1318,-319Z" fill="#e39ba7" stroke="#e39ba7" stroke-width="1.51"/><path d="M1509,1296L1364,1316L1824,1336Z" fill="#ca485e" stroke="#ca485e" stroke-width="1.51"/><path d="M1364,1316L967,1389L1824,1336Z" fill="#cb4d61" stroke="#cb4d61" stroke-width="1.51"/><path d="M1980,183L2032,292L2060,45Z" fill="#d66c7a" stroke="#d66c7a" stroke-width="1.51"/><path d="M2060,45L2032,292L2134,-82Z" fill="#d76e7c" stroke="#d76e7c" stroke-width="1.51"/><path d="M2026,1035L2109,1162L2157,756Z" fill="#c9465c" stroke="#c9465c" stroke-width="1.51"/><path d="M2007,858L2026,1035L2157,756Z" fill="#cb4c60" stroke="#cb4c60" stroke-width="1.51"/><path d="M2134,-82L2032,292L2175,607Z" fill="#d46575" stroke="#d46575" stroke-width="1.51"/><path d="M2032,292L2061,448L2175,607Z" fill="#d15e70" stroke="#d15e70" stroke-width="1.51"/><path d="M1835,595L2157,756L2175,607Z" fill="#ce566a" stroke="#ce566a" stroke-width="1.51"/><path d="M2061,448L1835,595L2175,607Z" fill="#d05b6d" stroke="#d05b6d" stroke-width="1.51"/><path d="M1895,1259L1824,1336L2076,1256Z" fill="#c83e56" stroke="#c83e56" stroke-width="1.51"/><path d="M2068,-220L2003,-145L2134,-82Z" fill="#db7884" stroke="#db7884" stroke-width="1.51"/><path d="M1835,595L2007,858L2157,756Z" fill="#ce5368" stroke="#ce5368" stroke-width="1.51"/><path d="M2007,858L1985,1013L2026,1035Z" fill="#cb4a5f" stroke="#cb4a5f" stroke-width="1.51"/><path d="M2026,1035L2008,1161L2109,1162Z" fill="#c84159" stroke="#c84159" stroke-width="1.51"/><path d="M2003,-145L2060,45L2134,-82Z" fill="#d97581" stroke="#d97581" stroke-width="1.51"/><path d="M2008,1161L2076,1256L2109,1162Z" fill="#c73e56" stroke="#c73e56" stroke-width="1.51"/><path d="M1835,595L1771,766L2007,858Z" fill="#ce566b" stroke="#ce566b" stroke-width="1.51"/><path d="M2032,292L1855,431L2061,448Z" fill="#d36374" stroke="#d36374" stroke-width="1.51"/><path d="M1855,431L1835,595L2061,448Z" fill="#d16172" stroke="#d16172" stroke-width="1.51"/><path d="M2008,1161L1895,1259L2076,1256Z" fill="#c83f57" stroke="#c83f57" stroke-width="1.51"/><path d="M2003,-145L1751,-45L2060,45Z" fill="#da7784" stroke="#da7784" stroke-width="1.51"/><path d="M1888,-264L2003,-145L2068,-220Z" fill="#dc7d88" stroke="#dc7d88" stroke-width="1.51"/><path d="M1751,-45L1980,183L2060,45Z" fill="#d87381" stroke="#d87381" stroke-width="1.51"/><path d="M1751,-45L1933,210L1980,183Z" fill="#d77180" stroke="#d77180" stroke-width="1.51"/><path d="M1985,1013L2008,1161L2026,1035Z" fill="#c9455b" stroke="#c9455b" stroke-width="1.51"/><path d="M1980,183L1933,210L2032,292Z" fill="#d56b79" stroke="#d56b79" stroke-width="1.51"/><path d="M1933,210L1855,431L2032,292Z" fill="#d46878" stroke="#d46878" stroke-width="1.51"/><path d="M1818,244L1855,431L1933,210Z" fill="#d56a7b" stroke="#d56a7b" stroke-width="1.51"/><path d="M1747,1027L1985,1013L2007,858Z" fill="#cb4c61" stroke="#cb4c61" stroke-width="1.51"/><path d="M1771,766L1747,1027L2007,858Z" fill="#cd5166" stroke="#cd5166" stroke-width="1.51"/><path d="M1985,1013L1747,1027L2008,1161Z" fill="#ca485e" stroke="#ca485e" stroke-width="1.51"/><path d="M1747,1027L1895,1259L2008,1161Z" fill="#c9445c" stroke="#c9445c" stroke-width="1.51"/><path d="M1888,-264L1751,-45L2003,-145Z" fill="#db7d8a" stroke="#db7d8a" stroke-width="1.51"/><path d="M1751,-45L1700,174L1818,244Z" fill="#d87484" stroke="#d87484" stroke-width="1.51"/><path d="M1751,-45L1818,244L1933,210Z" fill="#d77181" stroke="#d77181" stroke-width="1.51"/><path d="M1747,1027L1663,1221L1895,1259Z" fill="#ca475e" stroke="#ca475e" stroke-width="1.51"/><path d="M1033,-300L1230,-302L1318,-319Z" fill="#e296a2" stroke="#e296a2" stroke-width="1.51"/><path d="M1719,688L1771,766L1835,595Z" fill="#d05c70" stroke="#d05c70" stroke-width="1.51"/><path d="M1818,244L1687,367L1855,431Z" fill="#d56a7b" stroke="#d56a7b" stroke-width="1.51"/><path d="M1725,-298L1751,-45L1888,-264Z" fill="#dd818d" stroke="#dd818d" stroke-width="1.51"/><path d="M1663,1221L1824,1336L1895,1259Z" fill="#c9435a" stroke="#c9435a" stroke-width="1.51"/><path d="M1687,367L1835,595L1855,431Z" fill="#d36577" stroke="#d36577" stroke-width="1.51"/><path d="M1687,367L1560,411L1719,688Z" fill="#d3677a" stroke="#d3677a" stroke-width="1.51"/><path d="M1725,-298L1596,-219L1751,-45Z" fill="#de8390" stroke="#de8390" stroke-width="1.51"/><path d="M1567,912L1747,1027L1771,766Z" fill="#cd5569" stroke="#cd5569" stroke-width="1.51"/><path d="M1663,1221L1509,1296L1824,1336Z" fill="#ca465c" stroke="#ca465c" stroke-width="1.51"/><path d="M1687,367L1719,688L1835,595Z" fill="#d26275" stroke="#d26275" stroke-width="1.51"/><path d="M1560,411L1501,566L1719,688Z" fill="#d36679" stroke="#d36679" stroke-width="1.51"/><path d="M1700,174L1687,367L1818,244Z" fill="#d66f7f" stroke="#d66f7f" stroke-width="1.51"/><path d="M1595,227L1687,367L1700,174Z" fill="#d77181" stroke="#d77181" stroke-width="1.51"/><path d="M1318,-319L1596,-219L1725,-298Z" fill="#df8a97" stroke="#df8a97" stroke-width="1.51"/><path d="M1548,32L1700,174L1751,-45Z" fill="#da7988" stroke="#da7988" stroke-width="1.51"/><path d="M1719,688L1542,833L1771,766Z" fill="#d05b6f" stroke="#d05b6f" stroke-width="1.51"/><path d="M1542,833L1567,912L1771,766Z" fill="#cf596d" stroke="#cf596d" stroke-width="1.51"/><path d="M1567,912L1663,1221L1747,1027Z" fill="#cc5065" stroke="#cc5065" stroke-width="1.51"/><path d="M1596,-219L1519,-115L1751,-45Z" fill="#dd828f" stroke="#dd828f" stroke-width="1.51"/><path d="M1519,-115L1548,32L1751,-45Z" fill="#db7f8d" stroke="#db7f8d" stroke-width="1.51"/><path d="M1567,912L1503,1220L1663,1221Z" fill="#cc4f64" stroke="#cc4f64" stroke-width="1.51"/><path d="M1501,566L1542,833L1719,688Z" fill="#d16074" stroke="#d16074" stroke-width="1.51"/><path d="M1501,566L1461,793L1542,833Z" fill="#d26174" stroke="#d26174" stroke-width="1.51"/><path d="M1548,32L1595,227L1700,174Z" fill="#d97886" stroke="#d97886" stroke-width="1.51"/><path d="M1595,227L1560,411L1687,367Z" fill="#d66f80" stroke="#d66f80" stroke-width="1.51"/><path d="M1375,1116L1503,1220L1567,912Z" fill="#cd5368" stroke="#cd5368" stroke-width="1.51"/><path d="M1503,1220L1509,1296L1663,1221Z" fill="#cb4b60" stroke="#cb4b60" stroke-width="1.51"/><path d="M1412,931L1375,1116L1567,912Z" fill="#cf586c" stroke="#cf586c" stroke-width="1.51"/><path d="M1548,32L1407,81L1595,227Z" fill="#d97b8a" stroke="#d97b8a" stroke-width="1.51"/><path d="M1407,81L1368,261L1595,227Z" fill="#d97a89" stroke="#d97a89" stroke-width="1.51"/><path d="M1368,261L1560,411L1595,227Z" fill="#d77484" stroke="#d77484" stroke-width="1.51"/><path d="M1455,-151L1519,-115L1596,-219Z" fill="#dd8693" stroke="#dd8693" stroke-width="1.51"/><path d="M1318,-319L1455,-151L1596,-219Z" fill="#e08b97" stroke="#e08b97" stroke-width="1.51"/><path d="M543,1306L382,1322L967,1389Z" fill="#d46574" stroke="#d46574" stroke-width="1.51"/><path d="M1390,547L1501,566L1560,411Z" fill="#d46b7d" stroke="#d46b7d" stroke-width="1.51"/><path d="M1542,833L1412,931L1567,912Z" fill="#d05b6e" stroke="#d05b6e" stroke-width="1.51"/><path d="M1519,-115L1407,81L1548,32Z" fill="#db808f" stroke="#db808f" stroke-width="1.51"/><path d="M1332,450L1390,547L1560,411Z" fill="#d56e80" stroke="#d56e80" stroke-width="1.51"/><path d="M1368,261L1332,450L1560,411Z" fill="#d67283" stroke="#d67283" stroke-width="1.51"/><path d="M1390,547L1461,793L1501,566Z" fill="#d36779" stroke="#d36779" stroke-width="1.51"/><path d="M1455,-151L1407,81L1519,-115Z" fill="#dc8391" stroke="#dc8391" stroke-width="1.51"/><path d="M1461,793L1412,931L1542,833Z" fill="#d05d71" stroke="#d05d71" stroke-width="1.51"/><path d="M1138,1286L967,1389L1364,1316Z" fill="#ce5468" stroke="#ce5468" stroke-width="1.51"/><path d="M1390,547L1289,639L1461,793Z" fill="#d3677a" stroke="#d3677a" stroke-width="1.51"/><path d="M1503,1220L1364,1316L1509,1296Z" fill="#cb4d62" stroke="#cb4d62" stroke-width="1.51"/><path d="M1375,1116L1364,1316L1503,1220Z" fill="#cc5065" stroke="#cc5065" stroke-width="1.51"/><path d="M1220,-119L1407,81L1455,-151Z" fill="#dd8694" stroke="#dd8694" stroke-width="1.51"/><path d="M1173,719L1412,931L1461,793Z" fill="#d16275" stroke="#d16275" stroke-width="1.51"/><path d="M1289,639L1173,719L1461,793Z" fill="#d3677a" stroke="#d3677a" stroke-width="1.51"/><path d="M1260,1183L1364,1316L1375,1116Z" fill="#cd5368" stroke="#cd5368" stroke-width="1.51"/><path d="M1318,-319L1220,-119L1455,-151Z" fill="#e08d9a" stroke="#e08d9a" stroke-width="1.51"/><path d="M1173,719L1106,886L1193,996Z" fill="#d36679" stroke="#d36679" stroke-width="1.51"/><path d="M1212,139L1368,261L1407,81Z" fill="#da7e8d" stroke="#da7e8d" stroke-width="1.51"/><path d="M1220,-119L1212,139L1407,81Z" fill="#dc8593" stroke="#dc8593" stroke-width="1.51"/><path d="M1173,719L1193,996L1412,931Z" fill="#d26275" stroke="#d26275" stroke-width="1.51"/><path d="M1193,996L1375,1116L1412,931Z" fill="#d05b6f" stroke="#d05b6f" stroke-width="1.51"/><path d="M1230,-302L1220,-119L1318,-319Z" fill="#e1919e" stroke="#e1919e" stroke-width="1.51"/><path d="M1123,-5L1212,139L1220,-119Z" fill="#dd8897" stroke="#dd8897" stroke-width="1.51"/><path d="M1196,264L1332,450L1368,261Z" fill="#d87888" stroke="#d87888" stroke-width="1.51"/><path d="M1332,450L1289,639L1390,547Z" fill="#d56e80" stroke="#d56e80" stroke-width="1.51"/><path d="M1212,139L1196,264L1368,261Z" fill="#da7d8d" stroke="#da7d8d" stroke-width="1.51"/><path d="M1193,996L1260,1183L1375,1116Z" fill="#cf596d" stroke="#cf596d" stroke-width="1.51"/><path d="M1260,1183L1138,1286L1364,1316Z" fill="#cd5468" stroke="#cd5468" stroke-width="1.51"/><path d="M1139,470L1289,639L1332,450Z" fill="#d67183" stroke="#d67183" stroke-width="1.51"/><path d="M1196,264L1139,470L1332,450Z" fill="#d87788" stroke="#d87788" stroke-width="1.51"/><path d="M1139,470L1114,507L1289,639Z" fill="#d67284" stroke="#d67284" stroke-width="1.51"/><path d="M1193,996L1101,1059L1260,1183Z" fill="#d05c70" stroke="#d05c70" stroke-width="1.51"/><path d="M1114,507L1173,719L1289,639Z" fill="#d56f81" stroke="#d56f81" stroke-width="1.51"/><path d="M1033,-300L1220,-119L1230,-302Z" fill="#e193a0" stroke="#e193a0" stroke-width="1.51"/><path d="M1083,1238L1138,1286L1260,1183Z" fill="#cf586c" stroke="#cf586c" stroke-width="1.51"/><path d="M1101,1059L1083,1238L1260,1183Z" fill="#cf5a6e" stroke="#cf5a6e" stroke-width="1.51"/><path d="M1114,507L1023,670L1173,719Z" fill="#d67183" stroke="#d67183" stroke-width="1.51"/><path d="M1123,-5L1053,97L1212,139Z" fill="#dd8796" stroke="#dd8796" stroke-width="1.51"/><path d="M973,321L1139,470L1196,264Z" fill="#da7c8d" stroke="#da7c8d" stroke-width="1.51"/><path d="M1053,97L1196,264L1212,139Z" fill="#db8392" stroke="#db8392" stroke-width="1.51"/><path d="M1033,-300L1123,-5L1220,-119Z" fill="#e0909d" stroke="#e0909d" stroke-width="1.51"/><path d="M1106,886L1101,1059L1193,996Z" fill="#d26275" stroke="#d26275" stroke-width="1.51"/><path d="M1053,97L973,321L1196,264Z" fill="#db8392" stroke="#db8392" stroke-width="1.51"/><path d="M928,220L973,321L1053,97Z" fill="#dc8695" stroke="#dc8695" stroke-width="1.51"/><path d="M1033,-300L841,-107L1123,-5Z" fill="#e093a1" stroke="#e093a1" stroke-width="1.51"/><path d="M1023,670L1106,886L1173,719Z" fill="#d56c7e" stroke="#d56c7e" stroke-width="1.51"/><path d="M1023,670L940,787L1106,886Z" fill="#d56d7f" stroke="#d56d7f" stroke-width="1.51"/><path d="M1083,1238L967,1389L1138,1286Z" fill="#cf586b" stroke="#cf586b" stroke-width="1.51"/><path d="M973,321L1114,507L1139,470Z" fill="#d97a8b" stroke="#d97a8b" stroke-width="1.51"/><path d="M798,1301L631,1288L967,1389Z" fill="#d26071" stroke="#d26071" stroke-width="1.51"/><path d="M631,1288L543,1306L967,1389Z" fill="#d36273" stroke="#d36273" stroke-width="1.51"/><path d="M848,935L1101,1059L1106,886Z" fill="#d36679" stroke="#d36679" stroke-width="1.51"/><path d="M939,544L1023,670L1114,507Z" fill="#d77687" stroke="#d77687" stroke-width="1.51"/><path d="M973,321L939,544L1114,507Z" fill="#d97b8b" stroke="#d97b8b" stroke-width="1.51"/><path d="M841,-107L1053,97L1123,-5Z" fill="#df8e9c" stroke="#df8e9c" stroke-width="1.51"/><path d="M841,-107L854,75L1053,97Z" fill="#df8f9d" stroke="#df8f9d" stroke-width="1.51"/><path d="M831,1091L1083,1238L1101,1059Z" fill="#d16073" stroke="#d16073" stroke-width="1.51"/><path d="M940,787L848,935L1106,886Z" fill="#d46b7d" stroke="#d46b7d" stroke-width="1.51"/><path d="M848,935L831,1091L1101,1059Z" fill="#d36779" stroke="#d36779" stroke-width="1.51"/><path d="M682,-327L789,-244L1033,-300Z" fill="#e49fab" stroke="#e49fab" stroke-width="1.51"/><path d="M798,1301L967,1389L1083,1238Z" fill="#d05c6e" stroke="#d05c6e" stroke-width="1.51"/><path d="M831,1091L798,1301L1083,1238Z" fill="#d16073" stroke="#d16073" stroke-width="1.51"/><path d="M789,-244L841,-107L1033,-300Z" fill="#e29aa7" stroke="#e29aa7" stroke-width="1.51"/><path d="M854,75L928,220L1053,97Z" fill="#dd8a99" stroke="#dd8a99" stroke-width="1.51"/><path d="M796,506L939,544L973,321Z" fill="#da7e8e" stroke="#da7e8e" stroke-width="1.51"/><path d="M939,544L940,787L1023,670Z" fill="#d77385" stroke="#d77385" stroke-width="1.51"/><path d="M939,544L714,588L940,787Z" fill="#d87789" stroke="#d87789" stroke-width="1.51"/><path d="M928,220L698,246L973,321Z" fill="#dd8796" stroke="#dd8796" stroke-width="1.51"/><path d="M698,246L796,506L973,321Z" fill="#db8594" stroke="#db8594" stroke-width="1.51"/><path d="M796,506L714,588L939,544Z" fill="#d97d8d" stroke="#d97d8d" stroke-width="1.51"/><path d="M646,752L848,935L940,787Z" fill="#d67183" stroke="#d67183" stroke-width="1.51"/><path d="M714,588L646,752L940,787Z" fill="#d87889" stroke="#d87889" stroke-width="1.51"/><path d="M698,246L647,400L796,506Z" fill="#dc8796" stroke="#dc8796" stroke-width="1.51"/><path d="M854,75L698,246L928,220Z" fill="#de8c9a" stroke="#de8c9a" stroke-width="1.51"/><path d="M642,1191L798,1301L831,1091Z" fill="#d36677" stroke="#d36677" stroke-width="1.51"/><path d="M646,752L702,977L848,935Z" fill="#d67183" stroke="#d67183" stroke-width="1.51"/><path d="M702,977L831,1091L848,935Z" fill="#d56b7d" stroke="#d56b7d" stroke-width="1.51"/><path d="M676,89L698,246L854,75Z" fill="#df909e" stroke="#df909e" stroke-width="1.51"/><path d="M841,-107L689,6L854,75Z" fill="#e094a1" stroke="#e094a1" stroke-width="1.51"/><path d="M689,6L676,89L854,75Z" fill="#e094a1" stroke="#e094a1" stroke-width="1.51"/><path d="M183,-313L491,-245L682,-327Z" fill="#e7abb5" stroke="#e7abb5" stroke-width="1.51"/><path d="M789,-244L689,6L841,-107Z" fill="#e29aa6" stroke="#e29aa6" stroke-width="1.51"/><path d="M702,977L642,1191L831,1091Z" fill="#d46b7b" stroke="#d46b7b" stroke-width="1.51"/><path d="M491,-245L689,6L789,-244Z" fill="#e39fab" stroke="#e39fab" stroke-width="1.51"/><path d="M682,-327L491,-245L789,-244Z" fill="#e5a4af" stroke="#e5a4af" stroke-width="1.51"/><path d="M647,400L601,486L796,506Z" fill="#dc8493" stroke="#dc8493" stroke-width="1.51"/><path d="M642,1191L631,1288L798,1301Z" fill="#d36676" stroke="#d36676" stroke-width="1.51"/><path d="M601,486L714,588L796,506Z" fill="#da8191" stroke="#da8191" stroke-width="1.51"/><path d="M107,1286L-34,1317L382,1322Z" fill="#d97482" stroke="#d97482" stroke-width="1.51"/><path d="M517,967L539,1182L642,1191Z" fill="#d66e7e" stroke="#d66e7e" stroke-width="1.51"/><path d="M491,-245L437,-92L689,6Z" fill="#e4a0ac" stroke="#e4a0ac" stroke-width="1.51"/><path d="M676,89L564,222L698,246Z" fill="#df919e" stroke="#df919e" stroke-width="1.51"/><path d="M564,222L647,400L698,246Z" fill="#de8d9b" stroke="#de8d9b" stroke-width="1.51"/><path d="M517,967L642,1191L702,977Z" fill="#d66f7f" stroke="#d66f7f" stroke-width="1.51"/><path d="M646,752L560,779L702,977Z" fill="#d87687" stroke="#d87687" stroke-width="1.51"/><path d="M560,779L517,967L702,977Z" fill="#d77686" stroke="#d77686" stroke-width="1.51"/><path d="M518,603L646,752L714,588Z" fill="#da7e8e" stroke="#da7e8e" stroke-width="1.51"/><path d="M601,486L518,603L714,588Z" fill="#db8292" stroke="#db8292" stroke-width="1.51"/><path d="M524,157L564,222L676,89Z" fill="#e094a1" stroke="#e094a1" stroke-width="1.51"/><path d="M437,-92L432,-24L689,6Z" fill="#e39eaa" stroke="#e39eaa" stroke-width="1.51"/><path d="M524,157L676,89L689,6Z" fill="#e195a3" stroke="#e195a3" stroke-width="1.51"/><path d="M432,-24L524,157L689,6Z" fill="#e29aa6" stroke="#e29aa6" stroke-width="1.51"/><path d="M539,1182L543,1306L631,1288Z" fill="#d56979" stroke="#d56979" stroke-width="1.51"/><path d="M539,1182L631,1288L642,1191Z" fill="#d46a7a" stroke="#d46a7a" stroke-width="1.51"/><path d="M518,603L560,779L646,752Z" fill="#da7d8d" stroke="#da7d8d" stroke-width="1.51"/><path d="M564,222L601,486L647,400Z" fill="#dd8b99" stroke="#dd8b99" stroke-width="1.51"/><path d="M564,222L305,414L601,486Z" fill="#de8e9c" stroke="#de8e9c" stroke-width="1.51"/><path d="M517,967L418,1083L539,1182Z" fill="#d77282" stroke="#d77282" stroke-width="1.51"/><path d="M285,314L305,414L564,222Z" fill="#e093a1" stroke="#e093a1" stroke-width="1.51"/><path d="M305,414L518,603L601,486Z" fill="#dd8998" stroke="#dd8998" stroke-width="1.51"/><path d="M349,662L362,778L518,603Z" fill="#db8393" stroke="#db8393" stroke-width="1.51"/><path d="M360,125L285,314L524,157Z" fill="#e198a5" stroke="#e198a5" stroke-width="1.51"/><path d="M518,603L362,778L560,779Z" fill="#da8090" stroke="#da8090" stroke-width="1.51"/><path d="M362,778L517,967L560,779Z" fill="#d97b8b" stroke="#d97b8b" stroke-width="1.51"/><path d="M524,157L285,314L564,222Z" fill="#e095a2" stroke="#e095a2" stroke-width="1.51"/><path d="M539,1182L382,1322L543,1306Z" fill="#d56c7a" stroke="#d56c7a" stroke-width="1.51"/><path d="M432,-24L360,125L524,157Z" fill="#e29ba8" stroke="#e29ba8" stroke-width="1.51"/><path d="M183,-313L283,-203L491,-245Z" fill="#e7adb7" stroke="#e7adb7" stroke-width="1.51"/><path d="M305,414L349,662L518,603Z" fill="#dd8998" stroke="#dd8998" stroke-width="1.51"/><path d="M418,1083L382,1322L539,1182Z" fill="#d66f7e" stroke="#d66f7e" stroke-width="1.51"/><path d="M362,778L284,953L517,967Z" fill="#d97c8a" stroke="#d97c8a" stroke-width="1.51"/><path d="M284,953L418,1083L517,967Z" fill="#d97886" stroke="#d97886" stroke-width="1.51"/><path d="M283,-203L437,-92L491,-245Z" fill="#e6a7b2" stroke="#e6a7b2" stroke-width="1.51"/><path d="M242,1099L382,1322L418,1083Z" fill="#d87382" stroke="#d87382" stroke-width="1.51"/><path d="M213,-78L432,-24L437,-92Z" fill="#e5a3af" stroke="#e5a3af" stroke-width="1.51"/><path d="M283,-203L213,-78L437,-92Z" fill="#e6a7b2" stroke="#e6a7b2" stroke-width="1.51"/><path d="M-239,-321L65,-273L183,-313Z" fill="#eab7c1" stroke="#eab7c1" stroke-width="1.51"/><path d="M213,-78L360,125L432,-24Z" fill="#e4a2ad" stroke="#e4a2ad" stroke-width="1.51"/><path d="M305,414L169,533L349,662Z" fill="#de8d9b" stroke="#de8d9b" stroke-width="1.51"/><path d="M284,953L242,1099L418,1083Z" fill="#d97887" stroke="#d97887" stroke-width="1.51"/><path d="M169,185L285,314L360,125Z" fill="#e29ba7" stroke="#e29ba7" stroke-width="1.51"/><path d="M234,909L284,953L362,778Z" fill="#db7f8e" stroke="#db7f8e" stroke-width="1.51"/><path d="M242,1099L107,1286L382,1322Z" fill="#d87482" stroke="#d87482" stroke-width="1.51"/><path d="M213,-78L169,185L360,125Z" fill="#e4a1ad" stroke="#e4a1ad" stroke-width="1.51"/><path d="M349,662L144,689L362,778Z" fill="#dd8695" stroke="#dd8695" stroke-width="1.51"/><path d="M144,689L234,909L362,778Z" fill="#dc8492" stroke="#dc8492" stroke-width="1.51"/><path d="M169,533L144,689L349,662Z" fill="#de8b9a" stroke="#de8b9a" stroke-width="1.51"/><path d="M169,185L211,312L285,314Z" fill="#e29aa6" stroke="#e29aa6" stroke-width="1.51"/><path d="M285,314L211,312L305,414Z" fill="#e196a3" stroke="#e196a3" stroke-width="1.51"/><path d="M211,312L169,533L305,414Z" fill="#e094a1" stroke="#e094a1" stroke-width="1.51"/><path d="M144,689L91,877L234,909Z" fill="#dd8593" stroke="#dd8593" stroke-width="1.51"/><path d="M234,909L242,1099L284,953Z" fill="#da7c8b" stroke="#da7c8b" stroke-width="1.51"/><path d="M65,-273L213,-78L283,-203Z" fill="#e7adb8" stroke="#e7adb8" stroke-width="1.51"/><path d="M183,-313L65,-273L283,-203Z" fill="#e8b1bb" stroke="#e8b1bb" stroke-width="1.51"/><path d="M-22,366L169,533L211,312Z" fill="#e197a4" stroke="#e197a4" stroke-width="1.51"/><path d="M-10,-35L169,185L213,-78Z" fill="#e5a7b2" stroke="#e5a7b2" stroke-width="1.51"/><path d="M91,877L74,1109L234,909Z" fill="#dc818f" stroke="#dc818f" stroke-width="1.51"/><path d="M234,909L74,1109L242,1099Z" fill="#da7c8b" stroke="#da7c8b" stroke-width="1.51"/><path d="M74,1109L107,1286L242,1099Z" fill="#da7987" stroke="#da7987" stroke-width="1.51"/><path d="M76,230L-22,366L211,312Z" fill="#e39ca9" stroke="#e39ca9" stroke-width="1.51"/><path d="M169,185L76,230L211,312Z" fill="#e39da9" stroke="#e39da9" stroke-width="1.51"/><path d="M65,-273L-10,-35L213,-78Z" fill="#e8aeb8" stroke="#e8aeb8" stroke-width="1.51"/><path d="M-10,-35L-89,106L76,230Z" fill="#e6a8b3" stroke="#e6a8b3" stroke-width="1.51"/><path d="M-10,-35L76,230L169,185Z" fill="#e5a4af" stroke="#e5a4af" stroke-width="1.51"/><path d="M-34,830L91,877L144,689Z" fill="#de8997" stroke="#de8997" stroke-width="1.51"/><path d="M-22,366L-110,545L169,533Z" fill="#e197a4" stroke="#e197a4" stroke-width="1.51"/><path d="M-65,702L144,689L169,533Z" fill="#df8e9d" stroke="#df8e9d" stroke-width="1.51"/><path d="M-110,545L-65,702L169,533Z" fill="#e193a0" stroke="#e193a0" stroke-width="1.51"/><path d="M-90,917L74,1109L91,877Z" fill="#dd8491" stroke="#dd8491" stroke-width="1.51"/><path d="M-65,702L-34,830L144,689Z" fill="#df8d9a" stroke="#df8d9a" stroke-width="1.51"/><path d="M74,1109L-34,1317L107,1286Z" fill="#db7a87" stroke="#db7a87" stroke-width="1.51"/><path d="M-162,-108L-10,-35L65,-273Z" fill="#e9b2bc" stroke="#e9b2bc" stroke-width="1.51"/><path d="M-34,830L-90,917L91,877Z" fill="#de8896" stroke="#de8896" stroke-width="1.51"/><path d="M-90,917L-127,923L74,1109Z" fill="#dd8692" stroke="#dd8692" stroke-width="1.51"/><path d="M-127,923L-244,1108L74,1109Z" fill="#de8591" stroke="#de8591" stroke-width="1.51"/><path d="M-244,1108L-34,1317L74,1109Z" fill="#dd7f8c" stroke="#dd7f8c" stroke-width="1.51"/><path d="M-89,106L-22,366L76,230Z" fill="#e4a2ae" stroke="#e4a2ae" stroke-width="1.51"/><path d="M-239,-321L-162,-108L65,-273Z" fill="#eab8c1" stroke="#eab8c1" stroke-width="1.51"/><path d="M-244,1108L-263,1272L-34,1317Z" fill="#de818c" stroke="#de818c" stroke-width="1.51"/><path d="M-170,516L-110,545L-22,366Z" fill="#e39ba8" stroke="#e39ba8" stroke-width="1.51"/><path d="M-89,106L-218,159L-22,366Z" fill="#e5a6b1" stroke="#e5a6b1" stroke-width="1.51"/><path d="M-218,159L-255,327L-22,366Z" fill="#e5a5b0" stroke="#e5a5b0" stroke-width="1.51"/><path d="M-162,-108L-89,106L-10,-35Z" fill="#e8aeb9" stroke="#e8aeb9" stroke-width="1.51"/><path d="M-255,327L-170,516L-22,366Z" fill="#e49fab" stroke="#e49fab" stroke-width="1.51"/><path d="M-127,923L-90,917L-34,830Z" fill="#df8a97" stroke="#df8a97" stroke-width="1.51"/><path d="M-229,832L-127,923L-34,830Z" fill="#df8c99" stroke="#df8c99" stroke-width="1.51"/><path d="M-65,702L-229,832L-34,830Z" fill="#e08f9c" stroke="#e08f9c" stroke-width="1.51"/><path d="M-162,-108L-218,159L-89,106Z" fill="#e8aeb8" stroke="#e8aeb8" stroke-width="1.51"/><path d="M-110,545L-170,516L-65,702Z" fill="#e297a3" stroke="#e297a3" stroke-width="1.51"/><path d="M-170,516L-229,832L-65,702Z" fill="#e194a1" stroke="#e194a1" stroke-width="1.51"/><path d="M-229,832L-244,1108L-127,923Z" fill="#df8b97" stroke="#df8b97" stroke-width="1.51"/><path d="M-239,-321L-218,159L-162,-108Z" fill="#eab4be" stroke="#eab4be" stroke-width="1.51"/><path d="M-255,327L-229,832L-170,516Z" fill="#e39ba7" stroke="#e39ba7" stroke-width="1.51"/><path d="M-239,-321L-255,327L-218,159Z" fill="#e9b0ba" stroke="#e9b0ba" stroke-width="1.51"/><path d="M-263,1272L-244,1108L-229,832Z" fill="#df8894" stroke="#df8894" stroke-width="1.51"/><path d="M-255,327L-263,1272L-229,832Z" fill="#e2929e" stroke="#e2929e" stroke-width="1.51"/></svg>