<svg xmlns="http://www.w3.org/2000/svg" width="1920" height="1080"><path d="M-239,-321L183,-313L682,-327Z" fill="#c84057" stroke="#c84057" stroke-width="1.51"/><path d="M382,1322L-34,1317L967,1389Z" fill="#df8c98" stroke="#df8c98" stroke-width="1.51"/><path d="M682,-327L1033,-300L1318,-319Z" fill="#d05a6c" stroke="#d05a6c" stroke-width="1.51"/><path d="M1509,1296L1364,1316L1824,1336Z" fill="#e7abb5" stroke="#e7abb5" stroke-width="1.51"/><path d="M1364,1316L967,1389L1824,1336Z" fill="#e5a7b2" stroke="#e5a7b2" stroke-width="1.51"/><path d="M1980,183L2032,292L2060,45Z" fill="#df8a97" stroke="#df8a97" stroke-width="1.51"/><path d="M2060,45L2032,292L2134,-82Z" fill="#de8895" stroke="#de8895" stroke-width="1.51"/><path d="M2026,1035L2109,1162L2157,756Z" fill="#e8adb7" stroke="#e8adb7" stroke-width="1.51"/><path d="M2007,858L2026,1035L2157,756Z" fill="#e6a8b3" stroke="#e6a8b3" stroke-width="1.51"/><path d="M2134,-82L2032,292L2175,607Z" fill="#e1919d" stroke="#e1919d" stroke-width="1.51"/><path d="M2032,292L2061,448L2175,607Z" fill="#e296a3" stroke="#e296a3" stroke-width="1.51"/><path d="M1835,595L2157,756L2175,607Z" fill="#e49eaa" stroke="#e49eaa" stroke-width="1.51"/><path d="M2061,448L1835,595L2175,607Z" fill="#e298a6" stroke="#e298a6" stroke-width="1.51"/><path d="M1895,1259L1824,1336L2076,1256Z" fill="#eab4be" stroke="#eab4be" stroke-width="1.51"/><path d="M2068,-220L2003,-145L2134,-82Z" fill="#dd808c" stroke="#dd808c" stroke-width="1.51"/><path d="M1835,595L2007,858L2157,756Z" fill="#e4a0ab" stroke="#e4a0ab" stroke-width="1.51"/><path d="M2007,858L1985,1013L2026,1035Z" fill="#e6a9b4" stroke="#e6a9b4" stroke-width="1.51"/><path d="M2026,1035L2008,1161L2109,1162Z" fill="#e9b1bb" stroke="#e9b1bb" stroke-width="1.51"/><path d="M2003,-145L2060,45L2134,-82Z" fill="#de838f" stroke="#de838f" stroke-width="1.51"/><path d="M2008,1161L2076,1256L2109,1162Z" fill="#eab4be" stroke="#eab4be" stroke-width="1.51"/><path d="M1835,595L1771,766L2007,858Z" fill="#e39ca8" stroke="#e39ca8" stroke-width="1.51"/><path d="M2032,292L1855,431L2061,448Z" fill="#e0919e" stroke="#e0919e" stroke-width="1.51"/><path d="M1855,431L1835,595L2061,448Z" fill="#e093a0" stroke="#e093a0" stroke-width="1.51"/><path d="M2008,1161L1895,1259L2076,1256Z" fill="#eab3bd" stroke="#eab3bd" stroke-width="1.51"/><path d="M2003,-145L1751,-45L2060,45Z" fill="#dc7f8c" stroke="#dc7f8c" stroke-width="1.51"/><path d="M1888,-264L2003,-145L2068,-220Z" fill="#dc7c87" stroke="#dc7c87" stroke-width="1.51"/><path d="M1751,-45L1980,183L2060,45Z" fill="#dd8390" stroke="#dd8390" stroke-width="1.51"/><path d="M1751,-45L1933,210L1980,183Z" fill="#dd8491" stroke="#dd8491" stroke-width="1.51"/><path d="M1985,1013L2008,1161L2026,1035Z" fill="#e8adb8" stroke="#e8adb8" stroke-width="1.51"/><path d="M1980,183L1933,210L2032,292Z" fill="#df8b98" stroke="#df8b98" stroke-width="1.51"/><path d="M1933,210L1855,431L2032,292Z" fill="#df8d9a" stroke="#df8d9a" stroke-width="1.51"/><path d="M1818,244L1855,431L1933,210Z" fill="#de8a98" stroke="#de8a98" stroke-width="1.51"/><path d="M1747,1027L1985,1013L2007,858Z" fill="#e5a7b2" stroke="#e5a7b2" stroke-width="1.51"/><path d="M1771,766L1747,1027L2007,858Z" fill="#e4a1ad" stroke="#e4a1ad" stroke-width="1.51"/><path d="M1985,1013L1747,1027L2008,1161Z" fill="#e7abb5" stroke="#e7abb5" stroke-width="1.51"/><path d="M1747,1027L1895,1259L2008,1161Z" fill="#e8adb7" stroke="#e8adb7" stroke-width="1.51"/><path d="M1888,-264L1751,-45L2003,-145Z" fill="#db7a87" stroke="#db7a87" stroke-width="1.51"/><path d="M1751,-45L1700,174L1818,244Z" fill="#dc818e" stroke="#dc818e" stroke-width="1.51"/><path d="M1751,-45L1818,244L1933,210Z" fill="#dc8391" stroke="#dc8391" stroke-width="1.51"/><path d="M1747,1027L1663,1221L1895,1259Z" fill="#e7aab5" stroke="#e7aab5" stroke-width="1.51"/><path d="M1033,-300L1230,-302L1318,-319Z" fill="#d26070" stroke="#d26070" stroke-width="1.51"/><path d="M1719,688L1771,766L1835,595Z" fill="#e197a4" stroke="#e197a4" stroke-width="1.51"/><path d="M1818,244L1687,367L1855,431Z" fill="#dd8997" stroke="#dd8997" stroke-width="1.51"/><path d="M1725,-298L1751,-45L1888,-264Z" fill="#d97683" stroke="#d97683" stroke-width="1.51"/><path d="M1663,1221L1824,1336L1895,1259Z" fill="#e8afba" stroke="#e8afba" stroke-width="1.51"/><path d="M1687,367L1835,595L1855,431Z" fill="#df8e9d" stroke="#df8e9d" stroke-width="1.51"/><path d="M1687,367L1560,411L1719,688Z" fill="#de8b9a" stroke="#de8b9a" stroke-width="1.51"/><path d="M1725,-298L1596,-219L1751,-45Z" fill="#d97382" stroke="#d97382" stroke-width="1.51"/><path d="M1567,912L1747,1027L1771,766Z" fill="#e39eaa" stroke="#e39eaa" stroke-width="1.51"/><path d="M1663,1221L1509,1296L1824,1336Z" fill="#e7acb7" stroke="#e7acb7" stroke-width="1.51"/><path d="M1687,367L1719,688L1835,595Z" fill="#df909e" stroke="#df909e" stroke-width="1.51"/><path d="M1560,411L1501,566L1719,688Z" fill="#de8c9b" stroke="#de8c9b" stroke-width="1.51"/><path d="M1700,174L1687,367L1818,244Z" fill="#dc8593" stroke="#dc8593" stroke-width="1.51"/><path d="M1595,227L1687,367L1700,174Z" fill="#dc8291" stroke="#dc8291" stroke-width="1.51"/><path d="M1318,-319L1596,-219L1725,-298Z" fill="#d66d7a" stroke="#d66d7a" stroke-width="1.51"/><path d="M1548,32L1700,174L1751,-45Z" fill="#da7b89" stroke="#da7b89" stroke-width="1.51"/><path d="M1719,688L1542,833L1771,766Z" fill="#e197a4" stroke="#e197a4" stroke-width="1.51"/><path d="M1542,833L1567,912L1771,766Z" fill="#e299a5" stroke="#e299a5" stroke-width="1.51"/><path d="M1567,912L1663,1221L1747,1027Z" fill="#e4a3ae" stroke="#e4a3ae" stroke-width="1.51"/><path d="M1596,-219L1519,-115L1751,-45Z" fill="#d87382" stroke="#d87382" stroke-width="1.51"/><path d="M1519,-115L1548,32L1751,-45Z" fill="#d87684" stroke="#d87684" stroke-width="1.51"/><path d="M1567,912L1503,1220L1663,1221Z" fill="#e5a3af" stroke="#e5a3af" stroke-width="1.51"/><path d="M1501,566L1542,833L1719,688Z" fill="#e0929f" stroke="#e0929f" stroke-width="1.51"/><path d="M1501,566L1461,793L1542,833Z" fill="#df919f" stroke="#df919f" stroke-width="1.51"/><path d="M1548,32L1595,227L1700,174Z" fill="#da7c8c" stroke="#da7c8c" stroke-width="1.51"/><path d="M1595,227L1560,411L1687,367Z" fill="#dc8493" stroke="#dc8493" stroke-width="1.51"/><path d="M1375,1116L1503,1220L1567,912Z" fill="#e39fab" stroke="#e39fab" stroke-width="1.51"/><path d="M1503,1220L1509,1296L1663,1221Z" fill="#e6a8b3" stroke="#e6a8b3" stroke-width="1.51"/><path d="M1412,931L1375,1116L1567,912Z" fill="#e29aa6" stroke="#e29aa6" stroke-width="1.51"/><path d="M1548,32L1407,81L1595,227Z" fill="#d97988" stroke="#d97988" stroke-width="1.51"/><path d="M1407,81L1368,261L1595,227Z" fill="#d97a8a" stroke="#d97a8a" stroke-width="1.51"/><path d="M1368,261L1560,411L1595,227Z" fill="#da7f8f" stroke="#da7f8f" stroke-width="1.51"/><path d="M1455,-151L1519,-115L1596,-219Z" fill="#d76f7e" stroke="#d76f7e" stroke-width="1.51"/><path d="M1318,-319L1455,-151L1596,-219Z" fill="#d66b7a" stroke="#d66b7a" stroke-width="1.51"/><path d="M543,1306L382,1322L967,1389Z" fill="#e0919d" stroke="#e0919d" stroke-width="1.51"/><path d="M1390,547L1501,566L1560,411Z" fill="#dc8796" stroke="#dc8796" stroke-width="1.51"/><path d="M1542,833L1412,931L1567,912Z" fill="#e198a4" stroke="#e198a4" stroke-width="1.51"/><path d="M1519,-115L1407,81L1548,32Z" fill="#d77383" stroke="#d77383" stroke-width="1.51"/><path d="M1332,450L1390,547L1560,411Z" fill="#db8493" stroke="#db8493" stroke-width="1.51"/><path d="M1368,261L1332,450L1560,411Z" fill="#da8090" stroke="#da8090" stroke-width="1.51"/><path d="M1390,547L1461,793L1501,566Z" fill="#dd8c9a" stroke="#dd8c9a" stroke-width="1.51"/><path d="M1455,-151L1407,81L1519,-115Z" fill="#d77181" stroke="#d77181" stroke-width="1.51"/><path d="M1461,793L1412,931L1542,833Z" fill="#e195a2" stroke="#e195a2" stroke-width="1.51"/><path d="M1138,1286L967,1389L1364,1316Z" fill="#e49fab" stroke="#e49fab" stroke-width="1.51"/><path d="M1390,547L1289,639L1461,793Z" fill="#dd8b99" stroke="#dd8b99" stroke-width="1.51"/><path d="M1503,1220L1364,1316L1509,1296Z" fill="#e6a6b1" stroke="#e6a6b1" stroke-width="1.51"/><path d="M1375,1116L1364,1316L1503,1220Z" fill="#e4a2ae" stroke="#e4a2ae" stroke-width="1.51"/><path d="M1220,-119L1407,81L1455,-151Z" fill="#d66e7e" stroke="#d66e7e" stroke-width="1.51"/><path d="M1173,719L1412,931L1461,793Z" fill="#df909e" stroke="#df909e" stroke-width="1.51"/><path d="M1289,639L1173,719L1461,793Z" fill="#dd8a99" stroke="#dd8a99" stroke-width="1.51"/><path d="M1260,1183L1364,1316L1375,1116Z" fill="#e39fab" stroke="#e39fab" stroke-width="1.51"/><path d="M1318,-319L1220,-119L1455,-151Z" fill="#d46878" stroke="#d46878" stroke-width="1.51"/><path d="M1173,719L1106,886L1193,996Z" fill="#de8c9b" stroke="#de8c9b" stroke-width="1.51"/><path d="M1212,139L1368,261L1407,81Z" fill="#d77585" stroke="#d77585" stroke-width="1.51"/><path d="M1220,-119L1212,139L1407,81Z" fill="#d66f7f" stroke="#d66f7f" stroke-width="1.51"/><path d="M1173,719L1193,996L1412,931Z" fill="#df909e" stroke="#df909e" stroke-width="1.51"/><path d="M1193,996L1375,1116L1412,931Z" fill="#e198a4" stroke="#e198a4" stroke-width="1.51"/><path d="M1230,-302L1220,-119L1318,-319Z" fill="#d36474" stroke="#d36474" stroke-width="1.51"/><path d="M1123,-5L1212,139L1220,-119Z" fill="#d46b7c" stroke="#d46b7c" stroke-width="1.51"/><path d="M1196,264L1332,450L1368,261Z" fill="#d97a8a" stroke="#d97a8a" stroke-width="1.51"/><path d="M1332,450L1289,639L1390,547Z" fill="#dc8493" stroke="#dc8493" stroke-width="1.51"/><path d="M1212,139L1196,264L1368,261Z" fill="#d77585" stroke="#d77585" stroke-width="1.51"/><path d="M1193,996L1260,1183L1375,1116Z" fill="#e29aa6" stroke="#e29aa6" stroke-width="1.51"/><path d="M1260,1183L1138,1286L1364,1316Z" fill="#e39fab" stroke="#e39fab" stroke-width="1.51"/><path d="M1139,470L1289,639L1332,450Z" fill="#db8190" stroke="#db8190" stroke-width="1.51"/><path d="M1196,264L1139,470L1332,450Z" fill="#d97a8b" stroke="#d97a8b" stroke-width="1.51"/><path d="M1139,470L1114,507L1289,639Z" fill="#da7f8f" stroke="#da7f8f" stroke-width="1.51"/><path d="M1193,996L1101,1059L1260,1183Z" fill="#e196a3" stroke="#e196a3" stroke-width="1.51"/><path d="M1114,507L1173,719L1289,639Z" fill="#db8393" stroke="#db8393" stroke-width="1.51"/><path d="M1033,-300L1220,-119L1230,-302Z" fill="#d26272" stroke="#d26272" stroke-width="1.51"/><path d="M1083,1238L1138,1286L1260,1183Z" fill="#e29ca8" stroke="#e29ca8" stroke-width="1.51"/><path d="M1101,1059L1083,1238L1260,1183Z" fill="#e198a5" stroke="#e198a5" stroke-width="1.51"/><path d="M1114,507L1023,670L1173,719Z" fill="#da8191" stroke="#da8191" stroke-width="1.51"/><path d="M1123,-5L1053,97L1212,139Z" fill="#d56c7d" stroke="#d56c7d" stroke-width="1.51"/><path d="M973,321L1139,470L1196,264Z" fill="#d77586" stroke="#d77586" stroke-width="1.51"/><path d="M1053,97L1196,264L1212,139Z" fill="#d56f81" stroke="#d56f81" stroke-width="1.51"/><path d="M1033,-300L1123,-5L1220,-119Z" fill="#d36375" stroke="#d36375" stroke-width="1.51"/><path d="M1106,886L1101,1059L1193,996Z" fill="#df909e" stroke="#df909e" stroke-width="1.51"/><path d="M1053,97L973,321L1196,264Z" fill="#d66f81" stroke="#d66f81" stroke-width="1.51"/><path d="M928,220L973,321L1053,97Z" fill="#d56c7e" stroke="#d56c7e" stroke-width="1.51"/><path d="M1033,-300L841,-107L1123,-5Z" fill="#d15f72" stroke="#d15f72" stroke-width="1.51"/><path d="M1023,670L1106,886L1173,719Z" fill="#dc8695" stroke="#dc8695" stroke-width="1.51"/><path d="M1023,670L940,787L1106,886Z" fill="#dc8594" stroke="#dc8594" stroke-width="1.51"/><path d="M1083,1238L967,1389L1138,1286Z" fill="#e39ca8" stroke="#e39ca8" stroke-width="1.51"/><path d="M973,321L1114,507L1139,470Z" fill="#d87889" stroke="#d87889" stroke-width="1.51"/><path d="M798,1301L631,1288L967,1389Z" fill="#e195a2" stroke="#e195a2" stroke-width="1.51"/><path d="M631,1288L543,1306L967,1389Z" fill="#e1939f" stroke="#e1939f" stroke-width="1.51"/><path d="M848,935L1101,1059L1106,886Z" fill="#de8c9a" stroke="#de8c9a" stroke-width="1.51"/><path d="M939,544L1023,670L1114,507Z" fill="#d97c8c" stroke="#d97c8c" stroke-width="1.51"/><path d="M973,321L939,544L1114,507Z" fill="#d87788" stroke="#d87788" stroke-width="1.51"/><path d="M841,-107L1053,97L1123,-5Z" fill="#d36477" stroke="#d36477" stroke-width="1.51"/><path d="M841,-107L854,75L1053,97Z" fill="#d26376" stroke="#d26376" stroke-width="1.51"/><path d="M831,1091L1083,1238L1101,1059Z" fill="#e092a0" stroke="#e092a0" stroke-width="1.51"/><path d="M940,787L848,935L1106,886Z" fill="#dc8796" stroke="#dc8796" stroke-width="1.51"/><path d="M848,935L831,1091L1101,1059Z" fill="#de8c9a" stroke="#de8c9a" stroke-width="1.51"/><path d="M682,-327L789,-244L1033,-300Z" fill="#ce5568" stroke="#ce5568" stroke-width="1.51"/><path d="M798,1301L967,1389L1083,1238Z" fill="#e298a5" stroke="#e298a5" stroke-width="1.51"/><path d="M831,1091L798,1301L1083,1238Z" fill="#e093a0" stroke="#e093a0" stroke-width="1.51"/><path d="M789,-244L841,-107L1033,-300Z" fill="#cf596c" stroke="#cf596c" stroke-width="1.51"/><path d="M854,75L928,220L1053,97Z" fill="#d3687a" stroke="#d3687a" stroke-width="1.51"/><path d="M796,506L939,544L973,321Z" fill="#d77485" stroke="#d77485" stroke-width="1.51"/><path d="M939,544L940,787L1023,670Z" fill="#da7e8e" stroke="#da7e8e" stroke-width="1.51"/><path d="M939,544L714,588L940,787Z" fill="#d87a8b" stroke="#d87a8b" stroke-width="1.51"/><path d="M928,220L698,246L973,321Z" fill="#d46b7d" stroke="#d46b7d" stroke-width="1.51"/><path d="M698,246L796,506L973,321Z" fill="#d56d80" stroke="#d56d80" stroke-width="1.51"/><path d="M796,506L714,588L939,544Z" fill="#d77586" stroke="#d77586" stroke-width="1.51"/><path d="M646,752L848,935L940,787Z" fill="#da8090" stroke="#da8090" stroke-width="1.51"/><path d="M714,588L646,752L940,787Z" fill="#d97a8b" stroke="#d97a8b" stroke-width="1.51"/><path d="M698,246L647,400L796,506Z" fill="#d46b7e" stroke="#d46b7e" stroke-width="1.51"/><path d="M854,75L698,246L928,220Z" fill="#d36679" stroke="#d36679" stroke-width="1.51"/><path d="M642,1191L798,1301L831,1091Z" fill="#e08d9b" stroke="#e08d9b" stroke-width="1.51"/><path d="M646,752L702,977L848,935Z" fill="#da8190" stroke="#da8190" stroke-width="1.51"/><path d="M702,977L831,1091L848,935Z" fill="#dd8796" stroke="#dd8796" stroke-width="1.51"/><path d="M676,89L698,246L854,75Z" fill="#d16275" stroke="#d16275" stroke-width="1.51"/><path d="M841,-107L689,6L854,75Z" fill="#d05e71" stroke="#d05e71" stroke-width="1.51"/><path d="M689,6L676,89L854,75Z" fill="#d05e73" stroke="#d05e73" stroke-width="1.51"/><path d="M183,-313L491,-245L682,-327Z" fill="#ca495e" stroke="#ca495e" stroke-width="1.51"/><path d="M789,-244L689,6L841,-107Z" fill="#cf596d" stroke="#cf596d" stroke-width="1.51"/><path d="M702,977L642,1191L831,1091Z" fill="#dd8997" stroke="#dd8997" stroke-width="1.51"/><path d="M491,-245L689,6L789,-244Z" fill="#ce5468" stroke="#ce5468" stroke-width="1.51"/><path d="M682,-327L491,-245L789,-244Z" fill="#cd5064" stroke="#cd5064" stroke-width="1.51"/><path d="M647,400L601,486L796,506Z" fill="#d56d7f" stroke="#d56d7f" stroke-width="1.51"/><path d="M642,1191L631,1288L798,1301Z" fill="#df8f9c" stroke="#df8f9c" stroke-width="1.51"/><path d="M601,486L714,588L796,506Z" fill="#d67083" stroke="#d67083" stroke-width="1.51"/><path d="M107,1286L-34,1317L382,1322Z" fill="#dd838f" stroke="#dd838f" stroke-width="1.51"/><path d="M517,967L539,1182L642,1191Z" fill="#dd8693" stroke="#dd8693" stroke-width="1.51"/><path d="M491,-245L437,-92L689,6Z" fill="#cd5267" stroke="#cd5267" stroke-width="1.51"/><path d="M676,89L564,222L698,246Z" fill="#d26174" stroke="#d26174" stroke-width="1.51"/><path d="M564,222L647,400L698,246Z" fill="#d36578" stroke="#d36578" stroke-width="1.51"/><path d="M517,967L642,1191L702,977Z" fill="#dc8493" stroke="#dc8493" stroke-width="1.51"/><path d="M646,752L560,779L702,977Z" fill="#d97c8c" stroke="#d97c8c" stroke-width="1.51"/><path d="M560,779L517,967L702,977Z" fill="#da7d8d" stroke="#da7d8d" stroke-width="1.51"/><path d="M518,603L646,752L714,588Z" fill="#d77485" stroke="#d77485" stroke-width="1.51"/><path d="M601,486L518,603L714,588Z" fill="#d66f81" stroke="#d66f81" stroke-width="1.51"/><path d="M524,157L564,222L676,89Z" fill="#d15e71" stroke="#d15e71" stroke-width="1.51"/><path d="M437,-92L432,-24L689,6Z" fill="#ce5469" stroke="#ce5469" stroke-width="1.51"/><path d="M524,157L676,89L689,6Z" fill="#d05c70" stroke="#d05c70" stroke-width="1.51"/><path d="M432,-24L524,157L689,6Z" fill="#cf596d" stroke="#cf596d" stroke-width="1.51"/><path d="M539,1182L543,1306L631,1288Z" fill="#df8c99" stroke="#df8c99" stroke-width="1.51"/><path d="M539,1182L631,1288L642,1191Z" fill="#de8b98" stroke="#de8b98" stroke-width="1.51"/><path d="M518,603L560,779L646,752Z" fill="#d77586" stroke="#d77586" stroke-width="1.51"/><path d="M564,222L601,486L647,400Z" fill="#d3677a" stroke="#d3677a" stroke-width="1.51"/><path d="M564,222L305,414L601,486Z" fill="#d26477" stroke="#d26477" stroke-width="1.51"/><path d="M517,967L418,1083L539,1182Z" fill="#dc8290" stroke="#dc8290" stroke-width="1.51"/><path d="M285,314L305,414L564,222Z" fill="#d15f72" stroke="#d15f72" stroke-width="1.51"/><path d="M305,414L518,603L601,486Z" fill="#d4697b" stroke="#d4697b" stroke-width="1.51"/><path d="M349,662L362,778L518,603Z" fill="#d56f80" stroke="#d56f80" stroke-width="1.51"/><path d="M360,125L285,314L524,157Z" fill="#cf5a6e" stroke="#cf5a6e" stroke-width="1.51"/><path d="M518,603L362,778L560,779Z" fill="#d67383" stroke="#d67383" stroke-width="1.51"/><path d="M362,778L517,967L560,779Z" fill="#d87888" stroke="#d87888" stroke-width="1.51"/><path d="M524,157L285,314L564,222Z" fill="#d05d71" stroke="#d05d71" stroke-width="1.51"/><path d="M539,1182L382,1322L543,1306Z" fill="#df8a97" stroke="#df8a97" stroke-width="1.51"/><path d="M432,-24L360,125L524,157Z" fill="#ce576b" stroke="#ce576b" stroke-width="1.51"/><path d="M183,-313L283,-203L491,-245Z" fill="#ca465c" stroke="#ca465c" stroke-width="1.51"/><path d="M305,414L349,662L518,603Z" fill="#d4697b" stroke="#d4697b" stroke-width="1.51"/><path d="M418,1083L382,1322L539,1182Z" fill="#dd8693" stroke="#dd8693" stroke-width="1.51"/><path d="M362,778L284,953L517,967Z" fill="#d87887" stroke="#d87887" stroke-width="1.51"/><path d="M284,953L418,1083L517,967Z" fill="#da7c8b" stroke="#da7c8b" stroke-width="1.51"/><path d="M283,-203L437,-92L491,-245Z" fill="#cb4c61" stroke="#cb4c61" stroke-width="1.51"/><path d="M242,1099L382,1322L418,1083Z" fill="#dc8290" stroke="#dc8290" stroke-width="1.51"/><path d="M213,-78L432,-24L437,-92Z" fill="#cc4f64" stroke="#cc4f64" stroke-width="1.51"/><path d="M283,-203L213,-78L437,-92Z" fill="#cb4b61" stroke="#cb4b61" stroke-width="1.51"/><path d="M-239,-321L65,-273L183,-313Z" fill="#c73b53" stroke="#c73b53" stroke-width="1.51"/><path d="M213,-78L360,125L432,-24Z" fill="#cc5166" stroke="#cc5166" stroke-width="1.51"/><path d="M305,414L169,533L349,662Z" fill="#d26578" stroke="#d26578" stroke-width="1.51"/><path d="M284,953L242,1099L418,1083Z" fill="#da7c8a" stroke="#da7c8a" stroke-width="1.51"/><path d="M169,185L285,314L360,125Z" fill="#ce576b" stroke="#ce576b" stroke-width="1.51"/><path d="M234,909L284,953L362,778Z" fill="#d87584" stroke="#d87584" stroke-width="1.51"/><path d="M242,1099L107,1286L382,1322Z" fill="#dd828f" stroke="#dd828f" stroke-width="1.51"/><path d="M213,-78L169,185L360,125Z" fill="#cd5166" stroke="#cd5166" stroke-width="1.51"/><path d="M349,662L144,689L362,778Z" fill="#d56d7e" stroke="#d56d7e" stroke-width="1.51"/><path d="M144,689L234,909L362,778Z" fill="#d67080" stroke="#d67080" stroke-width="1.51"/><path d="M169,533L144,689L349,662Z" fill="#d3677a" stroke="#d3677a" stroke-width="1.51"/><path d="M169,185L211,312L285,314Z" fill="#cf586d" stroke="#cf586d" stroke-width="1.51"/><path d="M285,314L211,312L305,414Z" fill="#d05d71" stroke="#d05d71" stroke-width="1.51"/><path d="M211,312L169,533L305,414Z" fill="#d15e72" stroke="#d15e72" stroke-width="1.51"/><path d="M144,689L91,877L234,909Z" fill="#d66e7e" stroke="#d66e7e" stroke-width="1.51"/><path d="M234,909L242,1099L284,953Z" fill="#d97887" stroke="#d97887" stroke-width="1.51"/><path d="M65,-273L213,-78L283,-203Z" fill="#c9445c" stroke="#c9445c" stroke-width="1.51"/><path d="M183,-313L65,-273L283,-203Z" fill="#c94158" stroke="#c94158" stroke-width="1.51"/><path d="M-22,366L169,533L211,312Z" fill="#d05b6f" stroke="#d05b6f" stroke-width="1.51"/><path d="M-10,-35L169,185L213,-78Z" fill="#cb4b61" stroke="#cb4b61" stroke-width="1.51"/><path d="M91,877L74,1109L234,909Z" fill="#d87483" stroke="#d87483" stroke-width="1.51"/><path d="M234,909L74,1109L242,1099Z" fill="#d97887" stroke="#d97887" stroke-width="1.51"/><path d="M74,1109L107,1286L242,1099Z" fill="#db7c8a" stroke="#db7c8a" stroke-width="1.51"/><path d="M76,230L-22,366L211,312Z" fill="#ce566a" stroke="#ce566a" stroke-width="1.51"/><path d="M169,185L76,230L211,312Z" fill="#ce556a" stroke="#ce556a" stroke-width="1.51"/><path d="M65,-273L-10,-35L213,-78Z" fill="#c9445b" stroke="#c9445b" stroke-width="1.51"/><path d="M-10,-35L-89,106L76,230Z" fill="#cb4b61" stroke="#cb4b61" stroke-width="1.51"/><path d="M-10,-35L76,230L169,185Z" fill="#cc4e64" stroke="#cc4e64" stroke-width="1.51"/><path d="M-34,830L91,877L144,689Z" fill="#d56b7c" stroke="#d56b7c" stroke-width="1.51"/><path d="M-22,366L-110,545L169,533Z" fill="#d05c6f" stroke="#d05c6f" stroke-width="1.51"/><path d="M-65,702L144,689L169,533Z" fill="#d26476" stroke="#d26476" stroke-width="1.51"/><path d="M-110,545L-65,702L169,533Z" fill="#d16072" stroke="#d16072" stroke-width="1.51"/><path d="M-90,917L74,1109L91,877Z" fill="#d77180" stroke="#d77180" stroke-width="1.51"/><path d="M-65,702L-34,830L144,689Z" fill="#d46778" stroke="#d46778" stroke-width="1.51"/><path d="M74,1109L-34,1317L107,1286Z" fill="#dc7d8a" stroke="#dc7d8a" stroke-width="1.51"/><path d="M-162,-108L-10,-35L65,-273Z" fill="#c84058" stroke="#c84058" stroke-width="1.51"/><path d="M-34,830L-90,917L91,877Z" fill="#d66d7c" stroke="#d66d7c" stroke-width="1.51"/><path d="M-90,917L-127,923L74,1109Z" fill="#d7707f" stroke="#d7707f" stroke-width="1.51"/><path d="M-127,923L-244,1108L74,1109Z" fill="#d8727f" stroke="#d8727f" stroke-width="1.51"/><path d="M-244,1108L-34,1317L74,1109Z" fill="#da7885" stroke="#da7885" stroke-width="1.51"/><path d="M-89,106L-22,366L76,230Z" fill="#cd5165" stroke="#cd5165" stroke-width="1.51"/><path d="M-239,-321L-162,-108L65,-273Z" fill="#c63a53" stroke="#c63a53" stroke-width="1.51"/><path d="M-244,1108L-263,1272L-34,1317Z" fill="#db7883" stroke="#db7883" stroke-width="1.51"/><path d="M-170,516L-110,545L-22,366Z" fill="#cf596b" stroke="#cf596b" stroke-width="1.51"/><path d="M-89,106L-218,159L-22,366Z" fill="#cb4d62" stroke="#cb4d62" stroke-width="1.51"/><path d="M-218,159L-255,327L-22,366Z" fill="#cc4f63" stroke="#cc4f63" stroke-width="1.51"/><path d="M-162,-108L-89,106L-10,-35Z" fill="#c9445b" stroke="#c9445b" stroke-width="1.51"/><path d="M-255,327L-170,516L-22,366Z" fill="#ce5468" stroke="#ce5468" stroke-width="1.51"/><path d="M-127,923L-90,917L-34,830Z" fill="#d66c7a" stroke="#d66c7a" stroke-width="1.51"/><path d="M-229,832L-127,923L-34,830Z" fill="#d56a78" stroke="#d56a78" stroke-width="1.51"/><path d="M-65,702L-229,832L-34,830Z" fill="#d46676" stroke="#d46676" stroke-width="1.51"/><path d="M-162,-108L-218,159L-89,106Z" fill="#c9455b" stroke="#c9455b" stroke-width="1.51"/><path d="M-110,545L-170,516L-65,702Z" fill="#d15e6f" stroke="#d15e6f" stroke-width="1.51"/><path d="M-170,516L-229,832L-65,702Z" fill="#d26172" stroke="#d26172" stroke-width="1.51"/><path d="M-229,832L-244,1108L-127,923Z" fill="#d66c79" stroke="#d66c79" stroke-width="1.51"/><path d="M-239,-321L-218,159L-162,-108Z" fill="#c73d55" stroke="#c73d55" stroke-width="1.51"/><path d="M-255,327L-229,832L-170,516Z" fill="#d05a6b" stroke="#d05a6b" stroke-width="1.51"/><path d="M-239,-321L-255,327L-218,159Z" fill="#c84359" stroke="#c84359" stroke-width="1.51"/><path d="M-263,1272L-244,1108L-229,832Z" fill="#d86f7c" stroke="#d86f7c" stroke-width="1.51"/><path d="M-255,327L-263,1272L-229,832Z" fill="#d46473" stroke="#d46473" stroke-width="1.51"/></svg>